<svg xmlns="http://www.w3.org/2000/svg" width="27.252" height="21.8" viewBox="0 0 27.252 21.8">
  <path id="anchor-lock-solid" d="M13.577,4.087a1.362,1.362,0,1,1-1.362-1.362A1.362,1.362,0,0,1,13.577,4.087Zm.9,3.406a4.087,4.087,0,1,0-4.522,0H9.489a1.362,1.362,0,1,0,0,2.725h1.362v8.856H8.808a4.088,4.088,0,0,1-4.087-4.087v-.26l.3.3a1.021,1.021,0,0,0,1.443-1.443L4.082,11.2a1.018,1.018,0,0,0-1.443,0L.25,13.582a1.021,1.021,0,0,0,1.443,1.443l.3-.3v.26A6.81,6.81,0,0,0,8.8,21.8h6.812a7.111,7.111,0,0,0,1-.072,2.733,2.733,0,0,1-.324-1.29V19.019a3.976,3.976,0,0,1-.681.055H13.573V10.219h1.362a1.362,1.362,0,1,0,0-2.725h-.46Zm7.958,2.725A1.361,1.361,0,0,1,23.8,11.581v2.044H21.07V11.581A1.361,1.361,0,0,1,22.433,10.219Zm-3.406,1.362v2.044a1.361,1.361,0,0,0-1.362,1.362v5.45A1.361,1.361,0,0,0,19.027,21.8h6.812A1.361,1.361,0,0,0,27.2,20.437v-5.45a1.361,1.361,0,0,0-1.362-1.362V11.581a3.406,3.406,0,0,0-6.812,0Z" transform="translate(0.05)" fill="#fabc3f"/>
</svg>
