<svg xmlns="http://www.w3.org/2000/svg" width="49.147" height="20.172" viewBox="0 0 49.147 20.172">
  <path id="apple-pay-brands-solid" d="M8.928,127.3a3.015,3.015,0,0,1-2.419,1.144,3.4,3.4,0,0,1,.868-2.5,3.61,3.61,0,0,1,2.4-1.236,3.653,3.653,0,0,1-.852,2.6m.837,1.321c-1.336-.077-2.48.76-3.11.76-.645,0-1.612-.722-2.672-.7a3.947,3.947,0,0,0-3.348,2.035c-1.444,2.48-.376,6.143,1.021,8.162.683,1,1.5,2.1,2.572,2.058,1.021-.038,1.421-.66,2.649-.66s1.6.66,2.672.645c1.113-.023,1.812-1,2.5-2a8.68,8.68,0,0,0,1.113-2.3,3.628,3.628,0,0,1-2.173-3.294,3.694,3.694,0,0,1,1.758-3.094,3.8,3.8,0,0,0-2.979-1.62m7.709-2.78V140.8H19.8v-5.114h3.217a4.749,4.749,0,0,0,5-4.937,4.694,4.694,0,0,0-4.922-4.914Zm2.327,1.958h2.68c2.019,0,3.171,1.075,3.171,2.964s-1.152,2.979-3.179,2.979H19.8Zm12.455,13.123a3.834,3.834,0,0,0,3.425-1.912h.046v1.8h2.15v-7.448c0-2.158-1.728-3.555-4.384-3.555-2.465,0-4.292,1.413-4.361,3.348h2.1a2.044,2.044,0,0,1,2.2-1.528c1.421,0,2.219.66,2.219,1.881v.829l-2.9.177c-2.7.161-4.154,1.267-4.154,3.187C28.592,139.627,30.1,140.917,32.255,140.917Zm.63-1.774c-1.236,0-2.027-.6-2.027-1.505,0-.944.76-1.49,2.211-1.574l2.58-.161v.845A2.524,2.524,0,0,1,32.885,139.143Zm7.871,5.728c2.265,0,3.332-.868,4.262-3.486l4.077-11.441H46.729L44,138.782H43.95l-2.734-8.838H38.79l3.931,10.9-.215.66a1.849,1.849,0,0,1-1.958,1.559c-.184,0-.537-.023-.683-.038v1.8a8.048,8.048,0,0,0,.891.054Z" transform="translate(0.053 -124.7)" fill="#fff"/>
</svg>
