<svg xmlns="http://www.w3.org/2000/svg" width="16.638" height="19.015" viewBox="0 0 16.638 19.015">
  <path id="Icon_awesome-calendar-check" data-name="Icon awesome-calendar-check" d="M16.193,5.942H.446A.446.446,0,0,1,0,5.5V4.16A1.783,1.783,0,0,1,1.783,2.377H3.565V.446A.446.446,0,0,1,4.011,0H5.5a.446.446,0,0,1,.446.446V2.377H10.7V.446A.446.446,0,0,1,11.142,0h1.486a.446.446,0,0,1,.446.446V2.377h1.783A1.783,1.783,0,0,1,16.638,4.16V5.5A.446.446,0,0,1,16.193,5.942ZM.446,7.131H16.193a.446.446,0,0,1,.446.446v9.656a1.783,1.783,0,0,1-1.783,1.783H1.783A1.783,1.783,0,0,1,0,17.233V7.576A.446.446,0,0,1,.446,7.131Zm12.378,3.563L11.778,9.639a.446.446,0,0,0-.63,0L7.209,13.543,5.5,11.822a.446.446,0,0,0-.63,0L3.817,12.866a.446.446,0,0,0,0,.63l3.068,3.093a.446.446,0,0,0,.63,0l5.309-5.267a.446.446,0,0,0,0-.63Z" />
</svg>
