<svg xmlns="http://www.w3.org/2000/svg" width="27.312" height="27.31" viewBox="0 0 27.312 27.31">
  <path id="cabin-solid" fill="white" d="M12.62.32A1.7,1.7,0,0,1,14.6.32l5.835,4.166V3.414a1.705,1.705,0,0,1,1.707-1.707h1.707A1.705,1.705,0,0,1,25.56,3.414V8.145l.992.709a1.7,1.7,0,0,1-.992,3.094H1.664A1.7,1.7,0,0,1,.672,8.854ZM1.664,14.935a1.277,1.277,0,0,1,1.28-1.28H8.918a1.277,1.277,0,0,1,1.28,1.28v.853a1.277,1.277,0,0,1-1.28,1.28H2.944a1.277,1.277,0,0,1-1.28-1.28Zm1.28,3.84H8.918a1.277,1.277,0,0,1,1.28,1.28v.853a1.277,1.277,0,0,1-1.28,1.28H2.944a1.277,1.277,0,0,1-1.28-1.28v-.853A1.277,1.277,0,0,1,2.944,18.775Zm0,5.121H8.918a1.277,1.277,0,0,1,1.28,1.28v.853a1.277,1.277,0,0,1-1.28,1.28H2.944a1.277,1.277,0,0,1-1.28-1.28v-.853A1.277,1.277,0,0,1,2.944,23.9Zm14.081-8.961a1.277,1.277,0,0,1,1.28-1.28H24.28a1.277,1.277,0,0,1,1.28,1.28v.853a1.277,1.277,0,0,1-1.28,1.28H18.306a1.277,1.277,0,0,1-1.28-1.28Zm1.28,8.961H24.28a1.277,1.277,0,0,1,1.28,1.28v.853a1.277,1.277,0,0,1-1.28,1.28H18.306a1.277,1.277,0,0,1-1.28-1.28v-.853A1.277,1.277,0,0,1,18.306,23.9Zm-1.28-3.84a1.277,1.277,0,0,1,1.28-1.28H24.28a1.277,1.277,0,0,1,1.28,1.28v.853a1.277,1.277,0,0,1-1.28,1.28H18.306a1.277,1.277,0,0,1-1.28-1.28ZM13.612,8.534a1.707,1.707,0,1,0-1.707-1.707A1.707,1.707,0,0,0,13.612,8.534Z" transform="translate(0.045)"/>
</svg>
