<svg xmlns="http://www.w3.org/2000/svg" width="23" height="30.667" viewBox="0 0 23 30.667">
  <path id="calculator-solid" d="M3.833,0A3.837,3.837,0,0,0,0,3.833v23a3.837,3.837,0,0,0,3.833,3.833H19.167A3.837,3.837,0,0,0,23,26.833v-23A3.837,3.837,0,0,0,19.167,0ZM5.75,3.833h11.5A1.915,1.915,0,0,1,19.167,5.75V7.667A1.915,1.915,0,0,1,17.25,9.583H5.75A1.915,1.915,0,0,1,3.833,7.667V5.75A1.915,1.915,0,0,1,5.75,3.833Zm1.917,9.583A1.917,1.917,0,1,1,5.75,11.5,1.917,1.917,0,0,1,7.667,13.417ZM5.75,21.083a1.917,1.917,0,1,1,1.917-1.917A1.917,1.917,0,0,1,5.75,21.083ZM3.833,24.917A1.915,1.915,0,0,1,5.75,23H11.5a1.917,1.917,0,1,1,0,3.833H5.75A1.915,1.915,0,0,1,3.833,24.917ZM11.5,15.333a1.917,1.917,0,1,1,1.917-1.917A1.917,1.917,0,0,1,11.5,15.333Zm1.917,3.833A1.917,1.917,0,1,1,11.5,17.25,1.917,1.917,0,0,1,13.417,19.167Zm3.833-3.833a1.917,1.917,0,1,1,1.917-1.917A1.917,1.917,0,0,1,17.25,15.333Zm1.917,3.833A1.917,1.917,0,1,1,17.25,17.25,1.917,1.917,0,0,1,19.167,19.167ZM17.25,26.833a1.917,1.917,0,1,1,1.917-1.917A1.917,1.917,0,0,1,17.25,26.833Z" fill="#f5f7f8"/>
</svg>
