<svg xmlns="http://www.w3.org/2000/svg" width="28.19" height="35.898" viewBox="0 0 28.19 35.898">
  <g id="Group_140" data-name="Group 140" transform="translate(311.312 187.813)">
    <rect id="Rectangle_25" data-name="Rectangle 25" width="7" height="24" transform="translate(-311.312 -181.914)" fill="#fff"/>
    <path id="Rectangle_27" data-name="Rectangle 27" d="M0,0H14a2,2,0,0,1,2,2V5a2,2,0,0,1-2,2H0A0,0,0,0,1,0,7V0A0,0,0,0,1,0,0Z" transform="translate(-303.312 -178.914)" fill="#fff"/>
    <path id="Rectangle_28" data-name="Rectangle 28" d="M0,0H14a2,2,0,0,1,2,2V5a2,2,0,0,1-2,2H0A0,0,0,0,1,0,7V0A0,0,0,0,1,0,0Z" transform="translate(-303.312 -166.914)" fill="#fff"/>
    <path id="Path_50" data-name="Path 50" d="M-313.25-182.038l4.671-4.774h23.168v4.774Z" transform="translate(2.041 -1)" fill="#fff"/>
    <path id="Path_51" data-name="Path 51" d="M-313.25-186.812l4.712,4.774h23.374v-4.774Z" transform="translate(2.041 30.124)" fill="#fff"/>
  </g>
</svg>
