<svg xmlns="http://www.w3.org/2000/svg" width="41.506" height="33.206" viewBox="0 0 41.506 33.206">
  <path id="comments-solid" d="M13.48,22.829c7.452,0,13.49-5.111,13.49-11.415S20.931,0,13.48,0-.01,5.111-.01,11.415a10.269,10.269,0,0,0,2.568,6.706,6.02,6.02,0,0,1-.921,1.6,7.438,7.438,0,0,1-.863.927c-.117.1-.214.188-.279.24a.573.573,0,0,1-.071.052l-.013.013h0a1.034,1.034,0,0,0-.37,1.154,1.052,1.052,0,0,0,.986.72,11.72,11.72,0,0,0,4.028-.811,13.8,13.8,0,0,0,1.634-.739A15.332,15.332,0,0,0,13.48,22.829ZM29.045,11.415c0,7.283-6.427,12.77-14.041,13.425,1.576,4.825,6.8,8.366,13,8.366a15.332,15.332,0,0,0,6.79-1.55,14.3,14.3,0,0,0,1.634.739,11.72,11.72,0,0,0,4.028.811,1.041,1.041,0,0,0,.61-1.881h0l-.013-.013c-.013-.013-.039-.026-.071-.052-.065-.052-.162-.13-.279-.24a7.438,7.438,0,0,1-.863-.927,6.124,6.124,0,0,1-.921-1.6,10.243,10.243,0,0,0,2.568-6.706c0-6.019-5.506-10.954-12.491-11.382.026.331.039.668.039,1.005Z" transform="translate(0.011)" fill="#fff"/>
</svg>
