<svg xmlns="http://www.w3.org/2000/svg" width="32.143" height="25" viewBox="0 0 32.143 25">
  <path id="credit-card-solid" d="M3.571,32A3.575,3.575,0,0,0,0,35.571v1.786H32.143V35.571A3.575,3.575,0,0,0,28.571,32ZM32.143,42.714H0V53.429A3.575,3.575,0,0,0,3.571,57h25a3.575,3.575,0,0,0,3.571-3.571ZM6.25,49.857H9.821a.893.893,0,1,1,0,1.786H6.25a.893.893,0,1,1,0-1.786Zm6.25.893a.9.9,0,0,1,.893-.893h7.143a.893.893,0,1,1,0,1.786H13.393A.9.9,0,0,1,12.5,50.75Z" transform="translate(0 -32)" fill="black"/>
</svg>
