<svg xmlns="http://www.w3.org/2000/svg" width="33.735" height="33.735" viewBox="0 0 33.735 33.735">
  <path id="envelope-open-text-solid" d="M14.192,6.325H6.325V18.014L.013,13.342a4.215,4.215,0,0,1,1.693-3.018L3.163,9.244V6.325A3.163,3.163,0,0,1,6.325,3.163h5.047L14.66.731A3.7,3.7,0,0,1,16.868,0a3.736,3.736,0,0,1,2.207.725l3.288,2.438H27.41a3.163,3.163,0,0,1,3.163,3.163V9.244l1.456,1.081a4.215,4.215,0,0,1,1.693,3.018L27.41,18.014V6.325H14.186ZM0,29.518V15.952L14.337,26.573a4.268,4.268,0,0,0,2.53.837,4.224,4.224,0,0,0,2.53-.837L33.735,15.952V29.518h0a4.221,4.221,0,0,1-4.217,4.217H4.217A4.221,4.221,0,0,1,0,29.518ZM11.6,10.542H22.139a1.054,1.054,0,0,1,0,2.108H11.6a1.054,1.054,0,0,1,0-2.108Zm0,4.217H22.139a1.054,1.054,0,0,1,0,2.108H11.6a1.054,1.054,0,0,1,0-2.108Z" fill="#fff"/>
</svg>
