<svg xmlns="http://www.w3.org/2000/svg" width="36" height="36" viewBox="0 0 36 36">
  <path id="envelope-open-dollar-solid" d="M15.145,6.75H6.75V19.224L.014,14.238a4.5,4.5,0,0,1,1.807-3.22L3.375,9.865V6.75A3.376,3.376,0,0,1,6.75,3.375h5.386L15.645.78A3.946,3.946,0,0,1,18,0a3.987,3.987,0,0,1,2.355.773l3.509,2.6H29.25A3.376,3.376,0,0,1,32.625,6.75V9.865l1.554,1.153a4.5,4.5,0,0,1,1.807,3.22L29.25,19.224V6.75H15.138ZM0,31.5V17.023L15.3,28.357a4.555,4.555,0,0,0,2.7.893,4.508,4.508,0,0,0,2.7-.893L36,17.023V31.5h0A4.5,4.5,0,0,1,31.5,36H4.5A4.5,4.5,0,0,1,0,31.5ZM19.406,9.563v.977a13.637,13.637,0,0,1,1.484.33,1.408,1.408,0,1,1-.724,2.721,9.652,9.652,0,0,0-2.194-.366,3.08,3.08,0,0,0-1.512.352.7.7,0,0,0-.436.654c0,.127.007.246.373.471a9.259,9.259,0,0,0,1.99.738l.049.014a10.749,10.749,0,0,1,2.609,1.055,3.423,3.423,0,0,1,1.73,2.925A3.568,3.568,0,0,1,21.031,22.6a5.043,5.043,0,0,1-1.631.633v.97a1.406,1.406,0,0,1-2.813,0V23.175a15.956,15.956,0,0,1-1.983-.591h0c-.148-.049-.288-.1-.429-.148a1.405,1.405,0,0,1,.893-2.665c.176.056.345.12.506.169h0a8.752,8.752,0,0,0,2.468.6,2.763,2.763,0,0,0,1.5-.33.76.76,0,0,0,.415-.738c0-.2-.056-.352-.415-.577a8.5,8.5,0,0,0-1.969-.752l-.12-.035a11.335,11.335,0,0,1-2.5-.984,3.3,3.3,0,0,1-1.737-2.862,3.488,3.488,0,0,1,1.814-3.087,5.274,5.274,0,0,1,1.561-.6V9.591a1.406,1.406,0,0,1,2.813,0Z" fill="#fff"/>
</svg>
