<svg xmlns="http://www.w3.org/2000/svg" width="38.195" height="31.831" viewBox="0 0 38.195 31.831">
  <path id="hill-rockslide-solid" d="M16.734,36.667l1.79,3.182a1.068,1.068,0,0,0,.922.544H22.98a1.046,1.046,0,0,0,.922-.544l1.79-3.182a1.076,1.076,0,0,0,0-1.041L23.9,32.444a1.068,1.068,0,0,0-.922-.544H19.446a1.046,1.046,0,0,0-.922.544l-1.79,3.182A1.076,1.076,0,0,0,16.734,36.667ZM4.528,35.553A2.653,2.653,0,0,0,0,37.429v21a5.3,5.3,0,0,0,5.3,5.3h21A2.654,2.654,0,0,0,28.177,59.2Zm28.9,20.991a1.076,1.076,0,0,0,1.041,0l3.182-1.79a1.068,1.068,0,0,0,.544-.922V50.3a1.046,1.046,0,0,0-.544-.922l-3.182-1.79a1.076,1.076,0,0,0-1.041,0l-3.182,1.79a1.068,1.068,0,0,0-.544.922v3.534a1.046,1.046,0,0,0,.544.922ZM12.73,34.028a2.122,2.122,0,1,0-2.122,2.122A2.122,2.122,0,0,0,12.73,34.028Zm12.73,14.851a2.122,2.122,0,1,0-2.122-2.122A2.122,2.122,0,0,0,25.459,48.879Z" transform="translate(0 -31.9)" fill="#fff"/>
</svg>
