<svg xmlns="http://www.w3.org/2000/svg" width="45.223" height="27.134" viewBox="0 0 45.223 27.134">
  <path id="language-solid" d="M0,68.522A4.527,4.527,0,0,1,4.522,64H40.7a4.527,4.527,0,0,1,4.522,4.522V86.612A4.527,4.527,0,0,1,40.7,91.134H4.522A4.527,4.527,0,0,1,0,86.612Zm22.612,0V86.612H40.7V68.522ZM12.6,71.907a1.415,1.415,0,0,0-2.586,0L5.49,82.082a1.414,1.414,0,1,0,2.586,1.145l.629-1.42h5.2l.629,1.42a1.414,1.414,0,1,0,2.586-1.145L12.6,71.907Zm-1.293,4.049,1.343,3.024H9.963Zm20.35-4.89a1.417,1.417,0,0,1,1.413,1.413v.283h4.24a1.413,1.413,0,1,1,0,2.826h-.141l-.113.318a13.9,13.9,0,0,1-2.8,4.621c.064.042.127.078.191.113l1.336.8a1.412,1.412,0,1,1-1.449,2.424L33,83.064c-.318-.191-.622-.389-.926-.6a14.092,14.092,0,0,1-2.4,1.371l-.254.113a1.414,1.414,0,0,1-1.145-2.586l.254-.113a10.985,10.985,0,0,0,1.307-.692l-.862-.862a1.414,1.414,0,0,1,2-2L32,78.726l.035.035a11.078,11.078,0,0,0,2.106-3.18l-2.487.007H26.569a1.413,1.413,0,1,1,0-2.826h3.674v-.283A1.417,1.417,0,0,1,31.656,71.066Z" transform="translate(0 -64)" fill="#fff"/>
</svg>
