<svg xmlns="http://www.w3.org/2000/svg" width="32.128" height="25" viewBox="0 0 32.128 25">
  <g id="link-duotone-solid" transform="translate(-17.825 -20.845)">
    <path id="Path_24" data-name="Path 24" d="M222.078,30.034a7.687,7.687,0,0,0,11.69,9.9l5.97-5.97a7.687,7.687,0,0,0-9.9-11.69l-.085.058a1.7,1.7,0,1,0,1.978,2.764l.085-.058a4.285,4.285,0,0,1,5.518,6.518l-5.965,5.975a4.285,4.285,0,0,1-6.518-5.518l.058-.085a1.7,1.7,0,1,0-2.764-1.978l-.058.085Z" transform="translate(-192.038 0)" fill="#f5f7f8"/>
    <path id="Path_25" data-name="Path 25" d="M20.078,108.719a7.685,7.685,0,0,1,0-10.872l5.97-5.97a7.687,7.687,0,0,1,11.69,9.9l-.058.085a1.7,1.7,0,0,1-2.764-1.978l.058-.085a4.286,4.286,0,0,0-6.518-5.524l-5.97,5.97A4.285,4.285,0,0,0,28,106.768l.085-.058a1.7,1.7,0,1,1,1.978,2.764l-.085.058A7.685,7.685,0,0,1,20.078,108.719Z" transform="translate(0 -65.124)" fill="#f5f7f8"/>
  </g>
</svg>
