<svg xmlns="http://www.w3.org/2000/svg" width="28.501" height="24.05" viewBox="0 0 28.501 24.05">
  <path id="list-check-solid" d="M8.419,32.266a1.332,1.332,0,0,1,.1,1.887L4.511,38.606a1.314,1.314,0,0,1-.957.44,1.366,1.366,0,0,1-.98-.39L.342,36.429a1.347,1.347,0,0,1,0-1.892,1.33,1.33,0,0,1,1.887,0l1.23,1.23,3.067-3.406a1.332,1.332,0,0,1,1.887-.1Zm0,8.906a1.332,1.332,0,0,1,.1,1.887L4.511,47.511a1.314,1.314,0,0,1-.957.44,1.366,1.366,0,0,1-.98-.39L.342,45.335a1.334,1.334,0,1,1,1.887-1.887l1.23,1.23,3.067-3.406a1.332,1.332,0,0,1,1.887-.1Zm4-5.688A1.779,1.779,0,0,1,14.2,33.7H26.669a1.781,1.781,0,0,1,0,3.562H14.2A1.779,1.779,0,0,1,12.421,35.483Zm0,8.906A1.779,1.779,0,0,1,14.2,42.608H26.669a1.781,1.781,0,0,1,0,3.562H14.2A1.779,1.779,0,0,1,12.421,44.389ZM8.858,53.294a1.779,1.779,0,0,1,1.781-1.781h16.03a1.781,1.781,0,1,1,0,3.562H10.639A1.779,1.779,0,0,1,8.858,53.294ZM2.624,50.623A2.672,2.672,0,1,1-.047,53.294,2.672,2.672,0,0,1,2.624,50.623Z" transform="translate(0.05 -31.916)" fill="#f5f7f8"/>
</svg>
