<svg xmlns="http://www.w3.org/2000/svg" width="36" height="36" viewBox="0 0 36 36">
  <path id="logo-venmo-svgrepo-com" d="M65.121,32H35.076A2.936,2.936,0,0,0,32,34.8v30.11A3.168,3.168,0,0,0,35.076,68H65.112A3.006,3.006,0,0,0,68,64.915V34.8A2.76,2.76,0,0,0,65.121,32ZM51.768,60.527H43.436L40.1,40.553l7.292-.693,1.768,14.213c1.65-2.688,3.687-6.911,3.687-9.793a7.892,7.892,0,0,0-.692-3.536l6.64-1.344A7.716,7.716,0,0,1,59.9,43.625C59.9,48.889,55.411,55.726,51.768,60.527Z" transform="translate(-32 -32)" fill="#fff"/>
</svg>
