<svg xmlns="http://www.w3.org/2000/svg" width="46.263" height="32.377" viewBox="0 0 46.263 32.377">
  <path id="money-check-dollar-pen-sharp-solid" d="M41.637,64H0V91.758H23.609l.318-2.212L40.8,72.674h0l.839-.839ZM25.445,80.192v2.313H18.505V80.192Zm-6.939-6.939H32.384v2.313H18.505Zm-6.65-2.313v.455c.477.087,1.207.231,1.525.318l1.4.369-.745,2.8-1.4-.369c-.275-.072-1.258-.267-1.569-.311A3.747,3.747,0,0,0,9,74.388c-.455.21-.571.448-.593.586a.638.638,0,0,0,.007.361.718.718,0,0,0,.26.253,8.323,8.323,0,0,0,2.161.824l.058.014h0a9.815,9.815,0,0,1,2.92,1.258,3.58,3.58,0,0,1,1.222,1.482,3.651,3.651,0,0,1,.217,2.125,3.694,3.694,0,0,1-2.284,2.8,5.342,5.342,0,0,1-1.113.333v1.843H8.963V84.356c-.687-.159-1.59-.463-2.161-.658h0c-.123-.043-.231-.08-.318-.108l-1.373-.455.911-2.747,1.373.455c.145.051.3.1.463.152a16.286,16.286,0,0,0,1.894.571,3.952,3.952,0,0,0,2.082-.137.814.814,0,0,0,.578-.636.883.883,0,0,0-.014-.484.784.784,0,0,0-.267-.289,7.544,7.544,0,0,0-2.118-.846l-.159-.051a10.3,10.3,0,0,1-2.79-1.157,3.524,3.524,0,0,1-1.251-1.41,3.45,3.45,0,0,1-.246-2.1,3.741,3.741,0,0,1,2.248-2.725,5.143,5.143,0,0,1,1.157-.369V69.487h2.891v1.446Zm29.276,4.612-2.985,2.985,5.132,5.132,2.985-2.985-5.132-5.132ZM36.512,80.17,26.3,90.384l-.86,5.993,5.993-.86L41.644,85.3,36.512,80.17Z" transform="translate(0 -64)" fill="#fff"/>
</svg>
