<svg xmlns="http://www.w3.org/2000/svg" width="25.06" height="25.06" viewBox="0 0 25.06 25.06">
  <path id="person-shelter-sharp-solid" d="M3.133,8.879V25.06H0V7.048L12.53,0,25.06,7.048V25.06H21.928V8.879l-9.4-5.286Zm9.4-2.614a1.958,1.958,0,1,1-1.958,1.958A1.958,1.958,0,0,1,12.53,6.265Zm-2.349,4.7h5.4l.333.617,2.741,5.09.558,1.033-2.07,1.116-.558-1.033-1.312-2.442V25.06H12.922V19.578h-.783V25.06H9.789V15.344L8.472,17.787,7.914,18.82,5.844,17.7,6.4,16.671l2.741-5.09.333-.617h.7Z" fill="#f5f7f8"/>
</svg>
