<svg xmlns="http://www.w3.org/2000/svg" width="38.885" height="34.024" viewBox="0 0 38.885 34.024">
  <path id="phone-intercom-solid" d="M3.645,32h2.43a3.646,3.646,0,0,1,3.645,3.645V62.379a3.646,3.646,0,0,1-3.645,3.645H3.645A3.646,3.646,0,0,1,0,62.379V35.645A3.646,3.646,0,0,1,3.645,32Zm8.506,4.861A4.865,4.865,0,0,1,17.012,32H34.024a4.865,4.865,0,0,1,4.861,4.861v24.3a4.865,4.865,0,0,1-4.861,4.861H17.012a4.865,4.865,0,0,1-4.861-4.861ZM24.3,57.518a3.645,3.645,0,1,0-3.645,3.645A3.645,3.645,0,0,0,24.3,57.518Zm3.645-3.645a1.215,1.215,0,0,0,0,2.43h4.861a1.215,1.215,0,0,0,0-2.43Zm0,4.861a1.215,1.215,0,1,0,0,2.43h4.861a1.215,1.215,0,0,0,0-2.43ZM17.012,39.291v7.291a2.428,2.428,0,0,0,2.43,2.43H31.594a2.428,2.428,0,0,0,2.43-2.43V39.291a2.428,2.428,0,0,0-2.43-2.43H19.442A2.428,2.428,0,0,0,17.012,39.291Z" transform="translate(0 -32)" fill="#fff"/>
</svg>
