<svg xmlns="http://www.w3.org/2000/svg" width="28.749" height="28.756" viewBox="0 0 28.749 28.756">
  <path id="screwdriver-solid" d="M26.134.366A1.352,1.352,0,0,0,24.36.248L18.52,4.741a1.349,1.349,0,0,0-.528,1.067V8.845l-4.807,4.807a6.028,6.028,0,0,1,1.056.848,6.242,6.242,0,0,1,.848,1.056l4.807-4.8h3.038A1.34,1.34,0,0,0,24,10.227l4.492-5.84a1.339,1.339,0,0,0-.118-1.774ZM6.84,15.774.551,22.063a1.8,1.8,0,0,0,0,2.544L4.145,28.2a1.8,1.8,0,0,0,2.544,0l6.289-6.289A4.34,4.34,0,0,0,6.84,15.774Z" transform="translate(-0.025 0.028)"/>
</svg>
