<svg xmlns="http://www.w3.org/2000/svg" width="30.132" height="27" viewBox="0 0 30.132 27">
  <path id="temperature-snow-sharp-regular" d="M23.2,16.226l.564-.7v-13h6.75v13l.564.7a5.062,5.062,0,1,1-7.878,0ZM33.045,0H21.232V14.634a7.594,7.594,0,1,0,11.812,0V0ZM27.139,21.937a2.533,2.533,0,0,0,.844-4.92V13.495H26.295v3.523a2.533,2.533,0,0,0,.844,4.92ZM19.545,5.11l-1.192-.322-.216.817-.68,2.542L14.9,9.619V6.676l1.862-1.862.6-.6L16.17,3.027l-.6.6-.67.67V1.687H12.373V4.293l-.67-.67-.6-.6L9.916,4.219l.6.6,1.862,1.862V9.619L9.826,8.147,9.14,5.606l-.216-.817-1.629.438.216.817.243.912L6.962,6.5l-1.1-.633L4.6,8.058l1.1.633.791.459-.912.243-.812.221L5.2,11.243l.812-.221,2.542-.68,2.552,1.471L8.56,13.284,6.013,12.6,5.2,12.382l-.438,1.629.817.216.912.243-.791.459-1.1.633,1.266,2.194,1.1-.633.791-.459-.243.912-.216.817,1.629.438.216-.817.68-2.542,2.547-1.466v2.943L10.511,18.81l-.6.6L11.107,20.6l.6-.6.67-.67v2.605H14.9V19.332l.67.67.6.6,1.192-1.192-.6-.6L14.9,16.949V14.006l2.547,1.471.575,2.146a9.2,9.2,0,0,1,1.519-3.554V13.062l-.828.221L16.17,11.812l2.547-1.471.828.221V6.94l-.026.016.026-.095V5.11Z" transform="translate(-4.6)" fill="#f5f7f8"/>
</svg>
