<svg xmlns="http://www.w3.org/2000/svg" width="24.137" height="27.585" viewBox="0 0 24.137 27.585">
  <path id="trash-can-solid" d="M7.284.954A1.717,1.717,0,0,1,8.825,0h6.487a1.717,1.717,0,0,1,1.541.954l.388.77h5.172a1.724,1.724,0,0,1,0,3.448H1.724a1.724,1.724,0,0,1,0-3.448H6.9ZM1.724,6.9H22.413V24.137a3.451,3.451,0,0,1-3.448,3.448H5.172a3.451,3.451,0,0,1-3.448-3.448ZM6.9,10.344a.865.865,0,0,0-.862.862V23.275a.862.862,0,1,0,1.724,0V11.207A.865.865,0,0,0,6.9,10.344Zm5.172,0a.865.865,0,0,0-.862.862V23.275a.862.862,0,1,0,1.724,0V11.207A.865.865,0,0,0,12.069,10.344Zm5.172,0a.865.865,0,0,0-.862.862V23.275a.862.862,0,1,0,1.724,0V11.207A.865.865,0,0,0,17.241,10.344Z" fill="#f5f7f8"/>
</svg>
